<svg width="35" height="35" viewBox="0 0 35 35" fill="none" xmlns="http://www.w3.org/2000/svg">
<path d="M26.5125 11.7237L27.1885 11.0478C28.3082 9.92806 30.1238 9.92806 31.2435 11.0478C32.3634 12.1676 32.3634 13.9832 31.2435 15.1029L30.5677 15.7788M26.5125 11.7237C26.5125 11.7237 26.5971 13.1599 27.8642 14.4271C29.1315 15.6943 30.5677 15.7788 30.5677 15.7788M26.5125 11.7237L20.2991 17.937C19.8783 18.3579 19.6678 18.5683 19.4869 18.8004C19.2735 19.0741 19.0905 19.3703 18.9411 19.6835C18.8146 19.9492 18.7204 20.2314 18.5322 20.7961L17.9296 22.6038L17.7347 23.1886M30.5677 15.7788L24.3543 21.9922C23.9335 22.4131 23.723 22.6235 23.491 22.8045C23.2173 23.0179 22.9211 23.2009 22.6078 23.3502C22.3421 23.4768 22.0599 23.571 21.4953 23.7591L19.6875 24.3617L19.1027 24.5567M17.7347 23.1886L17.5397 23.7736C17.4471 24.0514 17.5194 24.3578 17.7265 24.5649C17.9336 24.7719 18.24 24.8443 18.5178 24.7517L19.1027 24.5567M17.7347 23.1886L19.1027 24.5567" stroke="white" stroke-width="1.5"/>
<path d="M11.6667 18.958H15.3125" stroke="white" stroke-width="1.5" stroke-linecap="round"/>
<path d="M11.6667 13.125H21.1459" stroke="white" stroke-width="1.5" stroke-linecap="round"/>
<path d="M11.6667 24.792H13.8542" stroke="white" stroke-width="1.5" stroke-linecap="round"/>
<path d="M28.9164 4.62553C27.208 2.91699 24.458 2.91699 18.9583 2.91699H16.0417C10.5419 2.91699 7.79209 2.91699 6.08354 4.62553C4.375 6.33409 4.375 9.08393 4.375 14.5837V20.417C4.375 25.9167 4.375 28.6666 6.08354 30.3751C7.79209 32.0837 10.5419 32.0837 16.0417 32.0837H18.9583C24.458 32.0837 27.208 32.0837 28.9164 30.3751C30.2918 28.9997 30.56 26.9497 30.6123 23.3337" stroke="white" stroke-width="1.5" stroke-linecap="round"/>
</svg>
