<svg width="20" height="20" viewBox="0 0 20 20" fill="none" xmlns="http://www.w3.org/2000/svg">
<path d="M11.8745 16.2491V12.4991C11.8745 12.3333 11.8087 12.1743 11.6915 12.0571C11.5743 11.9399 11.4153 11.8741 11.2495 11.8741H8.74954C8.58378 11.8741 8.42481 11.9399 8.3076 12.0571C8.19039 12.1743 8.12454 12.3333 8.12454 12.4991V16.2491C8.12454 16.4149 8.0587 16.5738 7.94151 16.691C7.82432 16.8083 7.66537 16.8741 7.49962 16.8741L3.75008 16.8746C3.668 16.8746 3.58671 16.8585 3.51088 16.8271C3.43504 16.7957 3.36613 16.7496 3.30809 16.6916C3.25004 16.6336 3.204 16.5647 3.17258 16.4888C3.14117 16.413 3.125 16.3317 3.125 16.2496V9.02615C3.125 8.93908 3.14319 8.85297 3.17842 8.77333C3.21364 8.6937 3.26511 8.62231 3.32954 8.56373L9.57911 2.88132C9.69415 2.77672 9.84406 2.71876 9.99955 2.71875C10.155 2.71874 10.3049 2.7767 10.42 2.8813L16.6704 8.56373C16.7349 8.6223 16.7863 8.6937 16.8216 8.77334C16.8568 8.85298 16.875 8.9391 16.875 9.02618V16.2496C16.875 16.3317 16.8588 16.413 16.8274 16.4888C16.796 16.5647 16.75 16.6336 16.6919 16.6916C16.6339 16.7496 16.565 16.7957 16.4891 16.8271C16.4133 16.8585 16.332 16.8746 16.2499 16.8746L12.4995 16.8741C12.3337 16.8741 12.1748 16.8083 12.0576 16.691C11.9404 16.5738 11.8745 16.4149 11.8745 16.2491V16.2491Z" stroke="#959595" stroke-linecap="round" stroke-linejoin="round"/>
</svg>
